<svg width="53" height="53" viewBox="0 0 53 53" fill="none" xmlns="http://www.w3.org/2000/svg">
<circle cx="26.002" cy="26.8821" r="26" fill="#28BB46"/>
<path d="M22.8816 25.842L24.9616 27.922L29.1216 23.762M34.9642 19.5857C34.7514 19.5965 34.5371 19.6019 34.3216 19.6019C31.1252 19.6019 28.2095 18.4003 26.0015 16.4241C23.7936 18.4002 20.8779 19.6018 17.6816 19.6018C17.4661 19.6018 17.2518 19.5963 17.039 19.5855C16.7796 20.5877 16.6416 21.6387 16.6416 22.722C16.6416 28.5372 20.6189 33.4234 26.0016 34.8088C31.3843 33.4234 35.3616 28.5372 35.3616 22.722C35.3616 21.6388 35.2236 20.5878 34.9642 19.5857Z" stroke="#F7F8FA" stroke-width="2" stroke-linecap="round" stroke-linejoin="round"/>
</svg>
